PathFileType	4	(X/Y/Z)	test.trc
DataRate	CameraRate	NumFrames	NumMarkers	Units	OrigDataRate	OrigDataStartFrame	OrigNumFrames
50.0	50.0	12	39	m	50.0	956	1092
Frame#	Time	Derrick:C7			Derrick:CLAV			Derrick:LANK			Derrick:LASI			Derrick:LBHD			Derrick:LELB			Derrick:LFHD			Derrick:LFIN			Derrick:LFRM			Derrick:LHEE			Derrick:LKNE			Derrick:LPSI			Derrick:LSHO			Derrick:LTHI			Derrick:LTIB			Derrick:LTOE			Derrick:LUPA			Derrick:LWRA			Derrick:LWRB			Derrick:RANK			Derrick:RASI			Derrick:RBAK			Derrick:RBHD			Derrick:RELB			Derrick:RFHD			Derrick:RFIN			Derrick:RFRM			Derrick:RHEE			Derrick:RKNE			Derrick:RPSI			Derrick:RSHO			Derrick:RTHI			Derrick:RTIB			Derrick:RTOE			Derrick:RUPA			Derrick:RWRA			Derrick:RWRB			Derrick:STRN			Derrick:T10		
		X1	Y1	Z1	X2	Y2	Z2	X3	Y3	Z3	X4	Y4	Z4	X5	Y5	Z5	X6	Y6	Z6	X7	Y7	Z7	X8	Y8	Z8	X9	Y9	Z9	X10	Y10	Z10	X11	Y11	Z11	X12	Y12	Z12	X13	Y13	Z13	X14	Y14	Z14	X15	Y15	Z15	X16	Y16	Z16	X17	Y17	Z17	X18	Y18	Z18	X19	Y19	Z19	X20	Y20	Z20	X21	Y21	Z21	X22	Y22	Z22	X23	Y23	Z23	X24	Y24	Z24	X25	Y25	Z25	X26	Y26	Z26	X27	Y27	Z27	X28	Y28	Z28	X29	Y29	Z29	X30	Y30	Z30	X31	Y31	Z31	X32	Y32	Z32	X33	Y33	Z33	X34	Y34	Z34	X35	Y35	Z35	X36	Y36	Z36	X37	Y37	Z37	X38	Y38	Z38	X39	Y39	Z39

956	19.100	-0.33169	0.88660	1.19824	-0.26779	0.90587	1.02623	-0.57543	1.48203	0.09924	-0.45430	1.25570	0.84257	-0.20112	0.83249	1.27959	-0.26987	1.28065	1.01413	-0.16822	0.72685	1.24710	-0.32419	1.42529	0.70405	-0.29848	1.34324	0.93137	-0.66292	1.49592	0.06139	-0.47460	1.37111	0.45705	-0.63545	1.27457	0.96783	-0.16341	1.02010	1.14066	-0.47772	1.37674	0.59005	-0.49742	1.44323	0.27955	-0.51736	1.35537	0.02527	-0.22816	1.20245	1.08500	-0.29958	1.38479	0.79812	-0.38884	1.35543	0.79744	-0.60256	0.99903	0.04164	-0.57014	1.05425	0.79463	-0.47193	0.86138	1.11898	-0.35829	0.81472	1.27386	-0.36763	0.92839	0.78711	-0.35080	0.69945	1.22777	-0.25787	1.25237	0.65686	-0.32532	1.03792	0.71606	-0.59317	1.07644	0.00376	-0.57212	0.97573	0.45546	-0.69279	1.18064	0.94030	-0.37337	0.77482	1.02877	-0.62822	1.01537	0.70618	-0.58282	0.95796	0.17197	-0.46938	0.90968	0.01285	-0.40687	0.83564	0.87882	-0.30705	1.19441	0.72422	-0.30949	1.14914	0.63631	-0.31282	1.01991	0.90074	-0.47072	1.01592	1.15349
957	19.120	-0.33426	0.88361	1.20736	-0.26958	0.90044	1.03580	-0.57237	1.48115	0.10268	-0.44950	1.25035	0.84513	-0.20500	0.82977	1.29079	-0.26793	1.27485	1.01791	-0.17128	0.72391	1.25954	-0.32075	1.41260	0.70520	-0.29590	1.33590	0.93403	-0.66000	1.49537	0.06628	-0.46924	1.36687	0.45872	-0.63134	1.27180	0.96900	-0.16465	1.01505	1.14923	-0.47239	1.37178	0.59182	-0.49315	1.44043	0.28200	-0.51606	1.35495	0.02559	-0.22723	1.19723	1.09059	-0.29607	1.37434	0.79960	-0.38594	1.34706	0.80029	-0.60172	0.99900	0.04267	-0.56676	1.04970	0.79776	-0.47432	0.85906	1.12739	-0.36204	0.81197	1.28387	-0.36992	0.91980	0.79440	-0.35426	0.69615	1.23890	-0.25799	1.23830	0.65229	-0.32748	1.02689	0.72000	-0.59271	1.07662	0.00523	-0.56872	0.97267	0.45631	-0.68936	1.17822	0.94174	-0.37638	0.77004	1.03889	-0.62415	1.01254	0.70780	-0.58168	0.95737	0.17271	-0.46898	0.90978	0.01297	-0.40971	0.82908	0.88786	-0.30722	1.18379	0.72320	-0.31243	1.13540	0.63707	-0.31162	1.01297	0.90867	-0.47171	1.01395	1.15927
958	19.140	-0.33700	0.88115	1.21671	-0.27057	0.89505	1.04567	-0.56896	1.47994	0.10546	-0.44476	1.24548	0.84743	-0.20888	0.82790	1.30259	-0.26535	1.26855	1.02066	-0.17538	0.72177	1.27250	-0.31677	1.39916	0.70489	-0.29224	1.32794	0.93549	-0.65712	1.49469	0.07087	-0.46392	1.36269	0.45971	-0.62796	1.27005	0.97039	-0.16588	1.01038	1.15814	-0.46695	1.36711	0.59268	-0.48879	1.43767	0.28395	-0.51470	1.35457	0.02590	-0.22603	1.19197	1.09521	-0.29193	1.36290	0.79946	-0.38228	1.33843	0.80197	-0.60113	0.99915	0.04385	-0.56350	1.04550	0.80110	-0.47716	0.85754	1.13600	-0.36580	0.80966	1.29449	-0.37245	0.91102	0.80145	-0.35761	0.69353	1.25072	-0.25987	1.22383	0.64761	-0.33004	1.01556	0.72377	-0.59165	1.07697	0.00679	-0.56580	0.96985	0.45674	-0.68569	1.17614	0.94280	-0.37959	0.76561	1.04976	-0.62103	1.00913	0.70842	-0.58043	0.95652	0.17345	-0.46896	0.90979	0.01305	-0.41245	0.82232	0.89703	-0.30717	1.17264	0.72213	-0.31588	1.12152	0.63766	-0.31030	1.00614	0.91701	-0.47282	1.01251	1.16499
959	19.160	-0.34016	0.87957	1.22616	-0.27177	0.89009	1.05579	-0.56513	1.47896	0.10817	-0.43954	1.23967	0.84875	-0.21336	0.82718	1.31468	-0.26213	1.26175	1.02217	-0.17935	0.72059	1.28619	-0.31332	1.38652	0.70392	-0.28766	1.31939	0.93547	-0.65359	1.49440	0.07536	-0.45865	1.35810	0.46008	-0.62244	1.26727	0.97012	-0.16729	1.00613	1.16749	-0.46139	1.36265	0.59286	-0.48414	1.43427	0.28553	-0.51363	1.35425	0.02620	-0.22456	1.18673	1.09956	-0.28717	1.35114	0.79795	-0.37801	1.32878	0.80225	-0.60060	0.99952	0.04522	-0.56049	1.04126	0.80394	-0.48000	0.85678	1.14472	-0.37018	0.80859	1.30526	-0.37508	0.90206	0.80871	-0.36138	0.69193	1.26299	-0.26205	1.20875	0.64335	-0.33242	1.00405	0.72789	-0.59062	1.07742	0.00841	-0.56260	0.96707	0.45690	-0.68217	1.17433	0.94375	-0.38307	0.76159	1.06097	-0.61816	1.00541	0.70850	-0.57839	0.95565	0.17414	-0.46868	0.90985	0.01308	-0.41534	0.81585	0.90649	-0.30765	1.16132	0.72075	-0.31956	1.10716	0.63829	-0.30862	0.99938	0.92532	-0.47425	1.01234	1.17058
960	19.180	-0.34358	0.87861	1.23571	-0.27341	0.88521	1.06594	-0.56129	1.47790	0.11105	-0.43486	1.23497	0.85018	-0.21821	0.82745	1.32679	-0.25847	1.25474	1.02285	-0.18391	0.72039	1.30058	-0.30960	1.37437	0.70184	-0.28267	1.31041	0.93477	-0.65015	1.49441	0.07992	-0.45307	1.35288	0.46016	-0.61846	1.26583	0.97062	-0.16884	1.00221	1.17684	-0.45538	1.35788	0.59286	-0.47892	1.43027	0.28692	-0.51237	1.35388	0.02637	-0.22262	1.18138	1.10349	-0.28130	1.33913	0.79524	-0.37298	1.32019	0.80195	-0.59985	0.99960	0.04641	-0.55761	1.03727	0.80648	-0.48310	0.85658	1.15355	-0.37489	0.80845	1.31580	-0.37750	0.89331	0.81693	-0.36567	0.69123	1.27569	-0.26413	1.19288	0.63880	-0.33496	0.99241	0.73245	-0.58989	1.07779	0.01004	-0.55930	0.96392	0.45751	-0.67853	1.17286	0.94449	-0.38694	0.75809	1.07244	-0.61555	1.00159	0.70888	-0.57677	0.95485	0.17470	-0.46838	0.90990	0.01315	-0.41812	0.80971	0.91667	-0.30931	1.14935	0.71885	-0.32282	1.09190	0.63926	-0.30765	0.99264	0.93320	-0.47511	1.01239	1.17604
961	19.200	-0.34721	0.87844	1.24542	-0.27532	0.88074	1.07616	-0.55755	1.47613	0.11398	-0.42974	1.22982	0.85144	-0.22367	0.82865	1.33946	-0.25445	1.24734	1.02292	-0.18862	0.72115	1.31544	-0.30428	1.36139	0.69832	-0.27693	1.30150	0.93369	-0.64670	1.49355	0.08468	-0.44695	1.34741	0.46024	-0.61420	1.26445	0.97091	-0.17086	0.99888	1.18603	-0.44863	1.35252	0.59285	-0.47365	1.42600	0.28813	-0.51136	1.35358	0.02645	-0.22064	1.17625	1.10661	-0.27389	1.32635	0.79144	-0.36607	1.31262	0.80121	-0.59895	0.99961	0.04710	-0.55455	1.03331	0.80886	-0.48619	0.85701	1.16230	-0.38015	0.80915	1.32670	-0.38003	0.88492	0.82535	-0.37020	0.69102	1.28892	-0.26689	1.17644	0.63419	-0.33763	0.98049	0.73698	-0.58912	1.07823	0.01110	-0.55610	0.96116	0.45799	-0.67449	1.17155	0.94503	-0.39090	0.75538	1.08405	-0.61235	0.99771	0.70996	-0.57558	0.95393	0.17518	-0.46828	0.90990	0.01321	-0.42113	0.80385	0.92705	-0.31054	1.13693	0.71709	-0.32630	1.07598	0.64015	-0.30641	0.98587	0.94060	-0.47635	1.01307	1.18162
962	19.220	-0.35100	0.87859	1.25523	-0.27761	0.87675	1.08669	-0.55390	1.47453	0.11691	-0.42439	1.22462	0.85286	-0.22910	0.83097	1.35264	-0.24980	1.24001	1.02251	-0.19351	0.72308	1.33095	-0.29805	1.34738	0.69450	-0.27029	1.29240	0.93212	-0.64353	1.49200	0.08974	-0.44028	1.34180	0.46049	-0.60910	1.26251	0.97073	-0.17295	0.99604	1.19520	-0.44165	1.34725	0.59285	-0.46853	1.42209	0.28973	-0.51020	1.35306	0.02655	-0.21823	1.17122	1.10901	-0.26650	1.31272	0.78712	-0.36155	1.30803	0.80009	-0.59813	0.99961	0.04746	-0.55144	1.02954	0.81153	-0.48954	0.85818	1.17120	-0.38564	0.81012	1.33822	-0.38404	0.87605	0.83305	-0.37450	0.69170	1.30248	-0.26986	1.15922	0.63012	-0.34164	0.96804	0.74122	-0.58870	1.07846	0.01201	-0.55337	0.95833	0.45807	-0.67055	1.17018	0.94556	-0.39538	0.75327	1.09584	-0.60897	0.99417	0.71081	-0.57437	0.95309	0.17533	-0.46812	0.90989	0.01324	-0.42511	0.79828	0.93710	-0.31212	1.12350	0.71543	-0.32993	1.05957	0.64137	-0.30566	0.97905	0.94813	-0.47776	1.01428	1.18693
963	19.240	-0.35485	0.87987	1.26537	-0.28013	0.87347	1.09756	-0.54989	1.47293	0.12023	-0.41907	1.21969	0.85426	-0.23461	0.83403	1.36597	-0.24451	1.23280	1.02202	-0.19887	0.72602	1.34681	-0.29103	1.33321	0.69097	-0.26302	1.28309	0.93042	-0.63976	1.49041	0.09488	-0.43326	1.33627	0.46067	-0.60407	1.26096	0.97047	-0.17472	0.99375	1.20451	-0.43478	1.34195	0.59330	-0.46341	1.41813	0.29147	-0.50871	1.35254	0.02683	-0.21573	1.16631	1.11159	-0.25892	1.29814	0.78303	-0.35033	1.30060	0.79955	-0.59771	0.99977	0.04811	-0.54795	1.02565	0.81424	-0.49315	0.86014	1.18022	-0.39144	0.81235	1.34972	-0.38943	0.86661	0.84020	-0.37928	0.69319	1.31618	-0.27316	1.14103	0.62667	-0.34696	0.95509	0.74505	-0.58821	1.07867	0.01280	-0.55073	0.95599	0.45793	-0.66650	1.16893	0.94589	-0.40017	0.75171	1.10787	-0.60534	0.99099	0.71104	-0.57297	0.95245	0.17539	-0.46794	0.90988	0.01322	-0.43077	0.79247	0.94694	-0.31469	1.10932	0.71412	-0.33399	1.04294	0.64297	-0.30527	0.97268	0.95612	-0.47893	1.01604	1.19215
964	19.260	-0.35858	0.88189	1.27527	-0.28285	0.87087	1.10854	-0.54521	1.47103	0.12353	-0.41362	1.21468	0.85592	-0.24103	0.83843	1.37925	-0.23913	1.22557	1.02214	-0.20402	0.72975	1.36294	-0.28332	1.31890	0.68805	-0.25569	1.27379	0.92933	-0.63552	1.48897	0.10061	-0.42609	1.32990	0.46074	-0.59881	1.25935	0.97015	-0.17693	0.99198	1.21354	-0.42767	1.33597	0.59308	-0.45734	1.41364	0.29336	-0.50709	1.35209	0.02697	-0.21305	1.16167	1.11477	-0.25126	1.28356	0.77982	-0.34182	1.29389	0.79858	-0.59698	0.99985	0.04876	-0.54466	1.02207	0.81706	-0.49660	0.86263	1.18941	-0.39719	0.81574	1.36087	-0.39534	0.85702	0.84787	-0.38425	0.69597	1.33002	-0.27759	1.12144	0.62302	-0.35238	0.94186	0.74984	-0.58746	1.07889	0.01378	-0.54828	0.95357	0.45800	-0.66261	1.16803	0.94630	-0.40518	0.75044	1.12045	-0.60212	0.98823	0.71109	-0.57165	0.95167	0.17566	-0.46767	0.90983	0.01323	-0.43682	0.78727	0.95747	-0.31849	1.09427	0.71268	-0.34022	1.02556	0.64470	-0.30493	0.96700	0.96461	-0.48026	1.01821	1.19735
965	19.280	-0.36250	0.88468	1.28556	-0.28567	0.86869	1.11938	-0.53961	1.46945	0.12710	-0.40851	1.20978	0.85712	-0.24701	0.84335	1.39212	-0.23403	1.21876	1.02306	-0.20995	0.73442	1.37893	-0.27502	1.30535	0.68600	-0.24839	1.26446	0.92892	-0.63015	1.48745	0.10677	-0.41876	1.32305	0.46081	-0.59342	1.25822	0.96985	-0.17891	0.99063	1.22244	-0.42023	1.32942	0.59282	-0.45084	1.40874	0.29538	-0.50540	1.35176	0.02698	-0.21070	1.15762	1.11819	-0.24367	1.26914	0.77765	-0.33305	1.28771	0.79816	-0.59647	1.00029	0.04944	-0.54162	1.01859	0.81977	-0.50004	0.86568	1.19906	-0.40300	0.82037	1.37177	-0.40086	0.84800	0.85736	-0.38938	0.69967	1.34419	-0.28281	1.10074	0.61945	-0.35846	0.92836	0.75533	-0.58675	1.07938	0.01450	-0.54613	0.95173	0.45817	-0.65829	1.16747	0.94675	-0.41021	0.74970	1.13368	-0.59903	0.98591	0.71151	-0.57102	0.95134	0.17580	-0.46744	0.90980	0.01323	-0.44252	0.78279	0.96935	-0.32255	1.07888	0.71108	-0.34756	1.00739	0.64694	-0.30479	0.96195	0.97338	-0.48144	1.02081	1.20266
966	19.300	-0.36608	0.88818	1.29576	-0.28839	0.86706	1.13043	-0.53308	1.46742	0.13080	-0.40306	1.20491	0.85865	-0.25299	0.84882	1.40507	-0.22940	1.21236	1.02411	-0.21565	0.73976	1.39484	-0.26553	1.29243	0.68488	-0.24161	1.25565	0.92905	-0.62418	1.48643	0.11318	-0.41075	1.31576	0.46115	-0.58737	1.25720	0.96925	-0.18089	0.98992	1.23109	-0.41230	1.32212	0.59302	-0.44378	1.40340	0.29766	-0.50316	1.35124	0.02751	-0.20810	1.15404	1.12152	-0.23647	1.25522	0.77681	-0.32424	1.28148	0.79766	-0.59631	1.00083	0.04957	-0.53877	1.01527	0.82267	-0.50322	0.86941	1.20880	-0.40879	0.82548	1.38326	-0.40692	0.83976	0.86715	-0.39455	0.70405	1.35865	-0.28997	1.07917	0.61568	-0.36545	0.91493	0.76126	-0.58582	1.07977	0.01454	-0.54481	0.95036	0.45810	-0.65399	1.16740	0.94741	-0.41517	0.75017	1.14710	-0.59611	0.98387	0.71234	-0.57071	0.95135	0.17560	-0.46739	0.90983	0.01318	-0.44803	0.77876	0.98181	-0.32691	1.06304	0.70979	-0.35578	0.98900	0.64981	-0.30494	0.95717	0.98227	-0.48251	1.02402	1.20791
967	19.320	-0.36964	0.89261	1.30595	-0.29144	0.86617	1.14179	-0.52607	1.46568	0.13468	-0.39716	1.19986	0.86055	-0.25879	0.85513	1.41816	-0.22442	1.20645	1.02558	-0.22136	0.74589	1.41066	-0.25513	1.28059	0.68477	-0.23497	1.24755	0.92940	-0.61727	1.48556	0.11957	-0.40237	1.30833	0.46137	-0.58123	1.25664	0.96907	-0.18370	0.99003	1.23995	-0.40379	1.31476	0.59323	-0.43573	1.39797	0.29966	-0.50071	1.35059	0.02822	-0.20556	1.15083	1.12512	-0.22982	1.24315	0.77718	-0.31546	1.27476	0.79735	-0.59615	1.00088	0.04925	-0.53594	1.01229	0.82589	-0.50647	0.87422	1.21818	-0.41414	0.83130	1.39532	-0.41454	0.83168	0.87649	-0.39997	0.70956	1.37342	-0.29870	1.05706	0.61230	-0.37338	0.90163	0.76727	-0.58593	1.07987	0.01436	-0.54432	0.94980	0.45775	-0.64932	1.16762	0.94804	-0.42051	0.75162	1.16052	-0.59332	0.98210	0.71289	-0.57073	0.95122	0.17528	-0.46754	0.90979	0.01310	-0.45432	0.77507	0.99387	-0.33222	1.04680	0.70865	-0.36499	0.97054	0.65313	-0.30559	0.95252	0.99132	-0.48338	1.02813	1.21314
